<svg xmlns="http://www.w3.org/2000/svg" xmlns:xlink="http://www.w3.org/1999/xlink" width="500" zoomAndPan="magnify" viewBox="0 0 375 374.999991" height="500" preserveAspectRatio="xMidYMid meet" version="1.0"><defs><g/><clipPath id="af9e9dfe86"><path d="M 112.074219 83.507812 L 262.824219 83.507812 L 262.824219 235.007812 L 112.074219 235.007812 Z M 112.074219 83.507812 " clip-rule="nonzero"/></clipPath></defs><rect x="-37.5" width="450" fill="#ffffff" y="-37.499999" height="449.999989" fill-opacity="1"/><rect x="-37.5" width="450" fill="#ffffff" y="-37.499999" height="449.999989" fill-opacity="1"/><rect x="-37.5" width="450" fill="#fafafa" y="-37.499999" height="449.999989" fill-opacity="1"/><g clip-path="url(#af9e9dfe86)"><path fill="#000000" d="M 262.765625 153.433594 C 262.769531 153.378906 262.761719 153.324219 262.742188 153.277344 C 262.742188 153.273438 262.742188 153.269531 262.742188 153.265625 L 247.71875 113.757812 C 247.714844 113.753906 247.710938 113.75 247.707031 113.746094 C 247.683594 113.6875 247.648438 113.632812 247.597656 113.589844 L 214.558594 87.273438 C 214.507812 87.230469 214.445312 87.199219 214.375 87.1875 C 214.371094 87.1875 214.367188 87.1875 214.359375 87.1875 L 187.394531 83.511719 C 187.34375 83.507812 187.285156 83.511719 187.234375 83.523438 L 174.382812 87.183594 L 174.015625 87.183594 C 173.941406 87.183594 173.871094 87.203125 173.8125 87.238281 L 173.484375 87.4375 L 141.851562 96.441406 C 141.839844 96.445312 141.832031 96.453125 141.824219 96.457031 C 141.78125 96.472656 141.742188 96.496094 141.707031 96.523438 C 141.695312 96.535156 141.679688 96.546875 141.667969 96.558594 C 141.660156 96.566406 141.652344 96.570312 141.644531 96.578125 L 113.941406 132.59375 C 113.933594 132.605469 113.929688 132.617188 113.925781 132.628906 C 113.914062 132.644531 113.902344 132.660156 113.894531 132.675781 C 113.890625 132.6875 113.890625 132.699219 113.886719 132.710938 C 113.878906 132.734375 113.875 132.753906 113.871094 132.777344 C 113.867188 132.789062 113.863281 132.800781 113.859375 132.8125 L 112.117188 164.488281 C 112.113281 164.515625 112.117188 164.542969 112.121094 164.570312 L 114.675781 180.589844 C 114.679688 180.613281 114.6875 180.628906 114.695312 180.648438 C 114.699219 180.664062 114.699219 180.675781 114.703125 180.691406 C 114.707031 180.691406 114.707031 180.695312 114.710938 180.699219 C 114.710938 180.703125 114.710938 180.707031 114.714844 180.710938 L 127.613281 205.3125 C 127.632812 205.355469 127.664062 205.394531 127.699219 205.425781 L 142.828125 218.820312 C 142.851562 218.847656 142.878906 218.871094 142.910156 218.890625 L 160.402344 230.699219 C 160.449219 230.730469 160.503906 230.75 160.5625 230.761719 L 188.003906 235.035156 L 188.007812 235.035156 C 188.011719 235.035156 188.011719 235.035156 188.015625 235.035156 C 188.035156 235.039062 188.054688 235.039062 188.074219 235.039062 C 188.101562 235.039062 188.128906 235.035156 188.15625 235.03125 C 188.160156 235.03125 188.160156 235.03125 188.160156 235.03125 C 188.160156 235.03125 188.160156 235.03125 188.164062 235.03125 C 188.164062 235.027344 188.167969 235.027344 188.167969 235.027344 C 188.171875 235.027344 188.171875 235.027344 188.171875 235.027344 C 188.171875 235.027344 188.175781 235.027344 188.175781 235.027344 C 188.175781 235.027344 188.175781 235.027344 188.179688 235.027344 C 188.179688 235.027344 188.179688 235.023438 188.179688 235.023438 C 188.179688 235.023438 188.183594 235.023438 188.183594 235.023438 L 233.027344 221.898438 C 233.042969 221.894531 233.054688 221.878906 233.070312 221.871094 C 233.113281 221.851562 233.148438 221.824219 233.179688 221.792969 C 233.195312 221.777344 233.21875 221.773438 233.230469 221.757812 L 260.511719 185.722656 C 260.558594 185.667969 260.574219 185.601562 260.585938 185.535156 C 260.585938 185.527344 260.59375 185.519531 260.59375 185.511719 Z M 259.828125 185.171875 L 248.027344 188.160156 L 261.820312 155.714844 Z M 211.945312 180.574219 L 168.46875 165.253906 L 201.261719 141.605469 Z M 201.261719 140.328125 L 168.5625 118.90625 L 211.078125 106.726562 Z M 200.792969 140.96875 L 168.019531 164.605469 L 168.019531 119.496094 Z M 167.226562 164.742188 L 130.03125 146.457031 L 167.226562 119.539062 Z M 175.285156 208.574219 L 139.824219 188.675781 L 167.359375 166.105469 Z M 168.136719 165.976562 L 211.707031 181.332031 L 176.097656 208.628906 Z M 212.183594 181.960938 L 214.480469 214.605469 L 176.808594 209.078125 Z M 212.691406 180.300781 L 202.023438 141.402344 L 238.300781 145.03125 Z M 238.804688 145.683594 L 246.851562 188.226562 L 213.203125 180.941406 Z M 247.496094 187.386719 L 239.542969 145.324219 L 261.847656 153.632812 Z M 238.863281 143.796875 L 212.570312 106.753906 L 246.859375 114.199219 Z M 238.199219 144.230469 L 202.003906 140.605469 L 211.808594 107.042969 Z M 168.140625 118.207031 L 174.300781 88.160156 L 210.566406 106.050781 Z M 167.324219 118.25 L 139.507812 108.933594 L 173.445312 88.386719 Z M 166.769531 118.894531 L 129.910156 145.566406 L 138.851562 109.546875 Z M 129.042969 145.78125 L 114.828125 132.824219 L 137.851562 110.296875 Z M 138.21875 108.828125 L 117.992188 128.625 L 141.035156 98.667969 Z M 128.796875 146.628906 L 115.425781 178.632812 L 114.664062 133.746094 Z M 129.160156 147.804688 L 138.578125 188.132812 L 115.589844 180.289062 Z M 129.84375 147.246094 L 166.898438 165.460938 L 139.367188 188.03125 Z M 174.800781 209.210938 L 143.457031 218.054688 L 139.625 189.472656 Z M 175.617188 209.804688 L 187.296875 233.945312 L 144.421875 218.605469 Z M 188.222656 234.042969 L 176.507812 209.832031 L 213.894531 215.316406 Z M 215.25 214.28125 L 212.960938 181.699219 L 246.460938 188.949219 Z M 246.328125 190.074219 L 232.707031 221.019531 L 215.703125 214.929688 Z M 247.632812 189.074219 L 259.207031 186.144531 L 234.636719 218.59375 Z M 239.5 144.464844 L 247.414062 115.179688 L 261.691406 152.730469 Z M 214.601562 88.316406 L 245.78125 113.152344 L 212.101562 105.839844 Z M 187.371094 84.308594 L 208.476562 87.183594 L 177.269531 87.183594 Z M 213.855469 87.972656 L 211.34375 105.554688 L 175.710938 87.972656 Z M 139.21875 108.183594 L 142.28125 97.140625 L 170.921875 88.988281 Z M 112.90625 164.488281 L 114.046875 143.808594 L 114.574219 174.945312 Z M 128.277344 204.878906 L 117.8125 184.917969 L 140.582031 215.777344 Z M 116.132812 181.308594 L 138.769531 189.035156 L 142.527344 217.085938 Z M 145.941406 219.988281 L 184.015625 233.609375 L 160.769531 229.988281 Z M 214.972656 215.507812 L 231.640625 221.480469 L 190.136719 233.628906 Z M 214.972656 215.507812 " fill-opacity="1" fill-rule="nonzero"/></g><g fill="#231f20" fill-opacity="1"><g transform="translate(96.780695, 267.380121)"><g><path d="M 14.921875 -8.953125 C 15.898438 -8.609375 16.664062 -8.070312 17.21875 -7.34375 C 17.78125 -6.625 18.0625 -5.75 18.0625 -4.71875 C 18.0625 -3.207031 17.457031 -2.039062 16.25 -1.21875 C 15.039062 -0.40625 13.289062 0 11 0 L 1.71875 0 L 1.71875 -17.1875 L 10.5 -17.1875 C 12.695312 -17.1875 14.367188 -16.78125 15.515625 -15.96875 C 16.660156 -15.15625 17.234375 -14.0625 17.234375 -12.6875 C 17.234375 -11.875 17.03125 -11.144531 16.625 -10.5 C 16.226562 -9.851562 15.660156 -9.335938 14.921875 -8.953125 Z M 6.53125 -13.671875 L 6.53125 -10.359375 L 9.875 -10.359375 C 11.507812 -10.359375 12.328125 -10.914062 12.328125 -12.03125 C 12.328125 -13.125 11.507812 -13.671875 9.875 -13.671875 Z M 10.609375 -3.515625 C 12.304688 -3.515625 13.15625 -4.09375 13.15625 -5.25 C 13.15625 -6.414062 12.304688 -7 10.609375 -7 L 6.53125 -7 L 6.53125 -3.515625 Z M 10.609375 -3.515625 "/></g></g></g><g fill="#231f20" fill-opacity="1"><g transform="translate(120.566346, 267.380121)"><g><path d="M 10.390625 0.34375 C 8.566406 0.34375 6.929688 -0.0390625 5.484375 -0.8125 C 4.035156 -1.582031 2.894531 -2.644531 2.0625 -4 C 1.238281 -5.351562 0.828125 -6.882812 0.828125 -8.59375 C 0.828125 -10.289062 1.238281 -11.816406 2.0625 -13.171875 C 2.894531 -14.535156 4.035156 -15.601562 5.484375 -16.375 C 6.929688 -17.144531 8.566406 -17.53125 10.390625 -17.53125 C 12.203125 -17.53125 13.832031 -17.144531 15.28125 -16.375 C 16.726562 -15.601562 17.863281 -14.535156 18.6875 -13.171875 C 19.519531 -11.816406 19.9375 -10.289062 19.9375 -8.59375 C 19.9375 -6.882812 19.519531 -5.351562 18.6875 -4 C 17.863281 -2.644531 16.726562 -1.582031 15.28125 -0.8125 C 13.832031 -0.0390625 12.203125 0.34375 10.390625 0.34375 Z M 10.390625 -3.6875 C 11.253906 -3.6875 12.035156 -3.890625 12.734375 -4.296875 C 13.441406 -4.703125 14 -5.273438 14.40625 -6.015625 C 14.8125 -6.765625 15.015625 -7.625 15.015625 -8.59375 C 15.015625 -9.5625 14.8125 -10.414062 14.40625 -11.15625 C 14 -11.894531 13.441406 -12.46875 12.734375 -12.875 C 12.035156 -13.289062 11.253906 -13.5 10.390625 -13.5 C 9.515625 -13.5 8.722656 -13.289062 8.015625 -12.875 C 7.316406 -12.46875 6.765625 -11.894531 6.359375 -11.15625 C 5.953125 -10.414062 5.75 -9.5625 5.75 -8.59375 C 5.75 -7.625 5.953125 -6.765625 6.359375 -6.015625 C 6.765625 -5.273438 7.316406 -4.703125 8.015625 -4.296875 C 8.722656 -3.890625 9.515625 -3.6875 10.390625 -3.6875 Z M 10.390625 -3.6875 "/></g></g></g><g fill="#231f20" fill-opacity="1"><g transform="translate(146.242019, 267.380121)"><g><path d="M 9.234375 -4.5625 L 6.578125 -4.5625 L 6.578125 0 L 1.71875 0 L 1.71875 -17.1875 L 9.578125 -17.1875 C 11.128906 -17.1875 12.476562 -16.925781 13.625 -16.40625 C 14.769531 -15.894531 15.648438 -15.160156 16.265625 -14.203125 C 16.890625 -13.242188 17.203125 -12.117188 17.203125 -10.828125 C 17.203125 -9.578125 16.910156 -8.488281 16.328125 -7.5625 C 15.753906 -6.644531 14.925781 -5.925781 13.84375 -5.40625 L 17.546875 0 L 12.34375 0 Z M 12.296875 -10.828125 C 12.296875 -11.628906 12.039062 -12.25 11.53125 -12.6875 C 11.03125 -13.132812 10.28125 -13.359375 9.28125 -13.359375 L 6.578125 -13.359375 L 6.578125 -8.328125 L 9.28125 -8.328125 C 10.28125 -8.328125 11.03125 -8.539062 11.53125 -8.96875 C 12.039062 -9.40625 12.296875 -10.023438 12.296875 -10.828125 Z M 12.296875 -10.828125 "/></g></g></g><g fill="#231f20" fill-opacity="1"><g transform="translate(169.315847, 267.380121)"><g><path d="M 13.234375 -3.34375 L 5.96875 -3.34375 L 4.609375 0 L -0.34375 0 L 7.234375 -17.1875 L 12.03125 -17.1875 L 19.640625 0 L 14.578125 0 Z M 11.8125 -6.921875 L 9.59375 -12.421875 L 7.390625 -6.921875 Z M 11.8125 -6.921875 "/></g></g></g><g fill="#231f20" fill-opacity="1"><g transform="translate(193.511965, 267.380121)"><g><path d="M 5.375 -13.328125 L 0.09375 -13.328125 L 0.09375 -17.1875 L 15.484375 -17.1875 L 15.484375 -13.328125 L 10.234375 -13.328125 L 10.234375 0 L 5.375 0 Z M 5.375 -13.328125 "/></g></g></g><g fill="#231f20" fill-opacity="1"><g transform="translate(214.008497, 267.380121)"><g><path d="M 15.515625 -3.75 L 15.515625 0 L 1.71875 0 L 1.71875 -17.1875 L 15.1875 -17.1875 L 15.1875 -13.421875 L 6.53125 -13.421875 L 6.53125 -10.53125 L 14.15625 -10.53125 L 14.15625 -6.890625 L 6.53125 -6.890625 L 6.53125 -3.75 Z M 15.515625 -3.75 "/></g></g></g><g fill="#231f20" fill-opacity="1"><g transform="translate(235.413222, 267.380121)"><g><path d="M 10.28125 0.34375 C 8.476562 0.34375 6.863281 -0.0351562 5.4375 -0.796875 C 4.007812 -1.554688 2.882812 -2.613281 2.0625 -3.96875 C 1.238281 -5.332031 0.828125 -6.875 0.828125 -8.59375 C 0.828125 -10.3125 1.238281 -11.847656 2.0625 -13.203125 C 2.882812 -14.566406 4.007812 -15.628906 5.4375 -16.390625 C 6.863281 -17.148438 8.476562 -17.53125 10.28125 -17.53125 C 11.851562 -17.53125 13.269531 -17.25 14.53125 -16.6875 C 15.789062 -16.132812 16.835938 -15.332031 17.671875 -14.28125 L 14.578125 -11.484375 C 13.460938 -12.828125 12.113281 -13.5 10.53125 -13.5 C 9.59375 -13.5 8.757812 -13.289062 8.03125 -12.875 C 7.3125 -12.46875 6.75 -11.894531 6.34375 -11.15625 C 5.945312 -10.414062 5.75 -9.5625 5.75 -8.59375 C 5.75 -7.625 5.945312 -6.765625 6.34375 -6.015625 C 6.75 -5.273438 7.3125 -4.703125 8.03125 -4.296875 C 8.757812 -3.890625 9.59375 -3.6875 10.53125 -3.6875 C 12.113281 -3.6875 13.460938 -4.351562 14.578125 -5.6875 L 17.671875 -2.890625 C 16.835938 -1.847656 15.789062 -1.046875 14.53125 -0.484375 C 13.269531 0.0664062 11.851562 0.34375 10.28125 0.34375 Z M 10.28125 0.34375 "/></g></g></g><g fill="#231f20" fill-opacity="1"><g transform="translate(258.43796, 267.380121)"><g><path d="M 18.0625 -17.1875 L 18.0625 0 L 13.203125 0 L 13.203125 -6.703125 L 6.578125 -6.703125 L 6.578125 0 L 1.71875 0 L 1.71875 -17.1875 L 6.578125 -17.1875 L 6.578125 -10.734375 L 13.203125 -10.734375 L 13.203125 -17.1875 Z M 18.0625 -17.1875 "/></g></g></g><g fill="#008037" fill-opacity="1"><g transform="translate(117.154443, 285.642197)"><g><path d="M 3.46875 0.109375 C 2.863281 0.109375 2.28125 0.0234375 1.71875 -0.140625 C 1.15625 -0.316406 0.710938 -0.546875 0.390625 -0.828125 L 0.890625 -1.953125 C 1.210938 -1.703125 1.601562 -1.492188 2.0625 -1.328125 C 2.53125 -1.171875 3 -1.09375 3.46875 -1.09375 C 4.050781 -1.09375 4.484375 -1.1875 4.765625 -1.375 C 5.054688 -1.5625 5.203125 -1.804688 5.203125 -2.109375 C 5.203125 -2.328125 5.117188 -2.507812 4.953125 -2.65625 C 4.796875 -2.800781 4.59375 -2.914062 4.34375 -3 C 4.101562 -3.082031 3.769531 -3.175781 3.34375 -3.28125 C 2.75 -3.414062 2.265625 -3.554688 1.890625 -3.703125 C 1.523438 -3.847656 1.210938 -4.066406 0.953125 -4.359375 C 0.691406 -4.660156 0.5625 -5.070312 0.5625 -5.59375 C 0.5625 -6.019531 0.675781 -6.410156 0.90625 -6.765625 C 1.144531 -7.117188 1.5 -7.398438 1.96875 -7.609375 C 2.4375 -7.816406 3.015625 -7.921875 3.703125 -7.921875 C 4.179688 -7.921875 4.648438 -7.859375 5.109375 -7.734375 C 5.566406 -7.617188 5.960938 -7.453125 6.296875 -7.234375 L 5.84375 -6.109375 C 5.5 -6.304688 5.140625 -6.457031 4.765625 -6.5625 C 4.398438 -6.664062 4.039062 -6.71875 3.6875 -6.71875 C 3.113281 -6.71875 2.6875 -6.617188 2.40625 -6.421875 C 2.132812 -6.234375 2 -5.976562 2 -5.65625 C 2 -5.4375 2.078125 -5.253906 2.234375 -5.109375 C 2.398438 -4.960938 2.601562 -4.847656 2.84375 -4.765625 C 3.09375 -4.691406 3.425781 -4.601562 3.84375 -4.5 C 4.425781 -4.363281 4.898438 -4.222656 5.265625 -4.078125 C 5.640625 -3.929688 5.957031 -3.707031 6.21875 -3.40625 C 6.488281 -3.113281 6.625 -2.710938 6.625 -2.203125 C 6.625 -1.773438 6.503906 -1.382812 6.265625 -1.03125 C 6.035156 -0.6875 5.679688 -0.410156 5.203125 -0.203125 C 4.734375 0.00390625 4.15625 0.109375 3.46875 0.109375 Z M 3.46875 0.109375 "/></g></g></g><g fill="#008037" fill-opacity="1"><g transform="translate(126.396207, 285.642197)"><g><path d="M 4.703125 0.109375 C 3.898438 0.109375 3.175781 -0.0625 2.53125 -0.40625 C 1.894531 -0.75 1.394531 -1.226562 1.03125 -1.84375 C 0.664062 -2.457031 0.484375 -3.144531 0.484375 -3.90625 C 0.484375 -4.664062 0.664062 -5.351562 1.03125 -5.96875 C 1.394531 -6.582031 1.894531 -7.0625 2.53125 -7.40625 C 3.175781 -7.75 3.898438 -7.921875 4.703125 -7.921875 C 5.492188 -7.921875 6.207031 -7.75 6.84375 -7.40625 C 7.488281 -7.0625 7.992188 -6.582031 8.359375 -5.96875 C 8.722656 -5.351562 8.90625 -4.664062 8.90625 -3.90625 C 8.90625 -3.132812 8.722656 -2.441406 8.359375 -1.828125 C 7.992188 -1.222656 7.488281 -0.75 6.84375 -0.40625 C 6.207031 -0.0625 5.492188 0.109375 4.703125 0.109375 Z M 4.703125 -1.15625 C 5.222656 -1.15625 5.691406 -1.269531 6.109375 -1.5 C 6.523438 -1.738281 6.847656 -2.066406 7.078125 -2.484375 C 7.316406 -2.910156 7.4375 -3.382812 7.4375 -3.90625 C 7.4375 -4.425781 7.316406 -4.894531 7.078125 -5.3125 C 6.847656 -5.738281 6.523438 -6.066406 6.109375 -6.296875 C 5.691406 -6.535156 5.222656 -6.65625 4.703125 -6.65625 C 4.179688 -6.65625 3.710938 -6.535156 3.296875 -6.296875 C 2.878906 -6.066406 2.550781 -5.738281 2.3125 -5.3125 C 2.070312 -4.894531 1.953125 -4.425781 1.953125 -3.90625 C 1.953125 -3.382812 2.070312 -2.910156 2.3125 -2.484375 C 2.550781 -2.066406 2.878906 -1.738281 3.296875 -1.5 C 3.710938 -1.269531 4.179688 -1.15625 4.703125 -1.15625 Z M 4.703125 -1.15625 "/></g></g></g><g fill="#008037" fill-opacity="1"><g transform="translate(138.011762, 285.642197)"><g><path d="M 2.5 -6.59375 L 2.5 -4.21875 L 6.265625 -4.21875 L 6.265625 -2.984375 L 2.5 -2.984375 L 2.5 0 L 1.046875 0 L 1.046875 -7.8125 L 6.75 -7.8125 L 6.75 -6.59375 Z M 2.5 -6.59375 "/></g></g></g><g fill="#008037" fill-opacity="1"><g transform="translate(147.342688, 285.642197)"><g><path d="M 2.640625 -6.578125 L 0.046875 -6.578125 L 0.046875 -7.8125 L 6.671875 -7.8125 L 6.671875 -6.578125 L 4.078125 -6.578125 L 4.078125 0 L 2.640625 0 Z M 2.640625 -6.578125 "/></g></g></g><g fill="#008037" fill-opacity="1"><g transform="translate(156.283553, 285.642197)"><g><path d="M 12.46875 -7.8125 L 9.875 0 L 8.328125 0 L 6.40625 -5.78125 L 4.4375 0 L 2.890625 0 L 0.296875 -7.8125 L 1.8125 -7.8125 L 3.75 -1.875 L 5.765625 -7.8125 L 7.109375 -7.8125 L 9.078125 -1.84375 L 11.078125 -7.8125 Z M 12.46875 -7.8125 "/></g></g></g><g fill="#008037" fill-opacity="1"><g transform="translate(171.264772, 285.642197)"><g><path d="M 6.109375 -1.8125 L 2.203125 -1.8125 L 1.4375 0 L -0.0625 0 L 3.453125 -7.8125 L 4.890625 -7.8125 L 8.40625 0 L 6.890625 0 Z M 5.640625 -2.9375 L 4.15625 -6.359375 L 2.703125 -2.9375 Z M 5.640625 -2.9375 "/></g></g></g><g fill="#008037" fill-opacity="1"><g transform="translate(181.843884, 285.642197)"><g><path d="M 6.15625 0 L 4.5625 -2.28125 C 4.5 -2.28125 4.398438 -2.28125 4.265625 -2.28125 L 2.5 -2.28125 L 2.5 0 L 1.046875 0 L 1.046875 -7.8125 L 4.265625 -7.8125 C 4.941406 -7.8125 5.53125 -7.695312 6.03125 -7.46875 C 6.53125 -7.25 6.914062 -6.929688 7.1875 -6.515625 C 7.457031 -6.097656 7.59375 -5.601562 7.59375 -5.03125 C 7.59375 -4.445312 7.445312 -3.941406 7.15625 -3.515625 C 6.875 -3.085938 6.460938 -2.769531 5.921875 -2.5625 L 7.71875 0 Z M 6.125 -5.03125 C 6.125 -5.53125 5.957031 -5.910156 5.625 -6.171875 C 5.300781 -6.441406 4.820312 -6.578125 4.1875 -6.578125 L 2.5 -6.578125 L 2.5 -3.46875 L 4.1875 -3.46875 C 4.820312 -3.46875 5.300781 -3.601562 5.625 -3.875 C 5.957031 -4.144531 6.125 -4.53125 6.125 -5.03125 Z M 6.125 -5.03125 "/></g></g></g><g fill="#008037" fill-opacity="1"><g transform="translate(192.222393, 285.642197)"><g><path d="M 6.90625 -1.21875 L 6.90625 0 L 1.046875 0 L 1.046875 -7.8125 L 6.75 -7.8125 L 6.75 -6.59375 L 2.5 -6.59375 L 2.5 -4.5625 L 6.265625 -4.5625 L 6.265625 -3.375 L 2.5 -3.375 L 2.5 -1.21875 Z M 6.90625 -1.21875 "/></g></g></g><g fill="#008037" fill-opacity="1"><g transform="translate(201.921088, 285.642197)"><g/></g></g><g fill="#008037" fill-opacity="1"><g transform="translate(207.228823, 285.642197)"><g><path d="M 7.984375 -7.8125 L 7.984375 0 L 6.53125 0 L 6.53125 -3.34375 L 2.5 -3.34375 L 2.5 0 L 1.046875 0 L 1.046875 -7.8125 L 2.5 -7.8125 L 2.5 -4.578125 L 6.53125 -4.578125 L 6.53125 -7.8125 Z M 7.984375 -7.8125 "/></g></g></g><g fill="#008037" fill-opacity="1"><g transform="translate(218.48776, 285.642197)"><g><path d="M 4.703125 0.109375 C 3.898438 0.109375 3.175781 -0.0625 2.53125 -0.40625 C 1.894531 -0.75 1.394531 -1.226562 1.03125 -1.84375 C 0.664062 -2.457031 0.484375 -3.144531 0.484375 -3.90625 C 0.484375 -4.664062 0.664062 -5.351562 1.03125 -5.96875 C 1.394531 -6.582031 1.894531 -7.0625 2.53125 -7.40625 C 3.175781 -7.75 3.898438 -7.921875 4.703125 -7.921875 C 5.492188 -7.921875 6.207031 -7.75 6.84375 -7.40625 C 7.488281 -7.0625 7.992188 -6.582031 8.359375 -5.96875 C 8.722656 -5.351562 8.90625 -4.664062 8.90625 -3.90625 C 8.90625 -3.132812 8.722656 -2.441406 8.359375 -1.828125 C 7.992188 -1.222656 7.488281 -0.75 6.84375 -0.40625 C 6.207031 -0.0625 5.492188 0.109375 4.703125 0.109375 Z M 4.703125 -1.15625 C 5.222656 -1.15625 5.691406 -1.269531 6.109375 -1.5 C 6.523438 -1.738281 6.847656 -2.066406 7.078125 -2.484375 C 7.316406 -2.910156 7.4375 -3.382812 7.4375 -3.90625 C 7.4375 -4.425781 7.316406 -4.894531 7.078125 -5.3125 C 6.847656 -5.738281 6.523438 -6.066406 6.109375 -6.296875 C 5.691406 -6.535156 5.222656 -6.65625 4.703125 -6.65625 C 4.179688 -6.65625 3.710938 -6.535156 3.296875 -6.296875 C 2.878906 -6.066406 2.550781 -5.738281 2.3125 -5.3125 C 2.070312 -4.894531 1.953125 -4.425781 1.953125 -3.90625 C 1.953125 -3.382812 2.070312 -2.910156 2.3125 -2.484375 C 2.550781 -2.066406 2.878906 -1.738281 3.296875 -1.5 C 3.710938 -1.269531 4.179688 -1.15625 4.703125 -1.15625 Z M 4.703125 -1.15625 "/></g></g></g><g fill="#008037" fill-opacity="1"><g transform="translate(230.103318, 285.642197)"><g><path d="M 4.40625 0.109375 C 3.332031 0.109375 2.492188 -0.191406 1.890625 -0.796875 C 1.285156 -1.398438 0.984375 -2.269531 0.984375 -3.40625 L 0.984375 -7.8125 L 2.4375 -7.8125 L 2.4375 -3.453125 C 2.4375 -1.921875 3.097656 -1.15625 4.421875 -1.15625 C 5.734375 -1.15625 6.390625 -1.921875 6.390625 -3.453125 L 6.390625 -7.8125 L 7.828125 -7.8125 L 7.828125 -3.40625 C 7.828125 -2.269531 7.523438 -1.398438 6.921875 -0.796875 C 6.328125 -0.191406 5.488281 0.109375 4.40625 0.109375 Z M 4.40625 0.109375 "/></g></g></g><g fill="#008037" fill-opacity="1"><g transform="translate(241.128212, 285.642197)"><g><path d="M 3.46875 0.109375 C 2.863281 0.109375 2.28125 0.0234375 1.71875 -0.140625 C 1.15625 -0.316406 0.710938 -0.546875 0.390625 -0.828125 L 0.890625 -1.953125 C 1.210938 -1.703125 1.601562 -1.492188 2.0625 -1.328125 C 2.53125 -1.171875 3 -1.09375 3.46875 -1.09375 C 4.050781 -1.09375 4.484375 -1.1875 4.765625 -1.375 C 5.054688 -1.5625 5.203125 -1.804688 5.203125 -2.109375 C 5.203125 -2.328125 5.117188 -2.507812 4.953125 -2.65625 C 4.796875 -2.800781 4.59375 -2.914062 4.34375 -3 C 4.101562 -3.082031 3.769531 -3.175781 3.34375 -3.28125 C 2.75 -3.414062 2.265625 -3.554688 1.890625 -3.703125 C 1.523438 -3.847656 1.210938 -4.066406 0.953125 -4.359375 C 0.691406 -4.660156 0.5625 -5.070312 0.5625 -5.59375 C 0.5625 -6.019531 0.675781 -6.410156 0.90625 -6.765625 C 1.144531 -7.117188 1.5 -7.398438 1.96875 -7.609375 C 2.4375 -7.816406 3.015625 -7.921875 3.703125 -7.921875 C 4.179688 -7.921875 4.648438 -7.859375 5.109375 -7.734375 C 5.566406 -7.617188 5.960938 -7.453125 6.296875 -7.234375 L 5.84375 -6.109375 C 5.5 -6.304688 5.140625 -6.457031 4.765625 -6.5625 C 4.398438 -6.664062 4.039062 -6.71875 3.6875 -6.71875 C 3.113281 -6.71875 2.6875 -6.617188 2.40625 -6.421875 C 2.132812 -6.234375 2 -5.976562 2 -5.65625 C 2 -5.4375 2.078125 -5.253906 2.234375 -5.109375 C 2.398438 -4.960938 2.601562 -4.847656 2.84375 -4.765625 C 3.09375 -4.691406 3.425781 -4.601562 3.84375 -4.5 C 4.425781 -4.363281 4.898438 -4.222656 5.265625 -4.078125 C 5.640625 -3.929688 5.957031 -3.707031 6.21875 -3.40625 C 6.488281 -3.113281 6.625 -2.710938 6.625 -2.203125 C 6.625 -1.773438 6.503906 -1.382812 6.265625 -1.03125 C 6.035156 -0.6875 5.679688 -0.410156 5.203125 -0.203125 C 4.734375 0.00390625 4.15625 0.109375 3.46875 0.109375 Z M 3.46875 0.109375 "/></g></g></g><g fill="#008037" fill-opacity="1"><g transform="translate(250.36998, 285.642197)"><g><path d="M 6.90625 -1.21875 L 6.90625 0 L 1.046875 0 L 1.046875 -7.8125 L 6.75 -7.8125 L 6.75 -6.59375 L 2.5 -6.59375 L 2.5 -4.5625 L 6.265625 -4.5625 L 6.265625 -3.375 L 2.5 -3.375 L 2.5 -1.21875 Z M 6.90625 -1.21875 "/></g></g></g></svg>