<svg xmlns="http://www.w3.org/2000/svg" xmlns:xlink="http://www.w3.org/1999/xlink" width="500" zoomAndPan="magnify" viewBox="0 0 375 374.999991" height="500" preserveAspectRatio="xMidYMid meet" version="1.0"><defs><clipPath id="87973cd595"><path d="M 108.039062 107.746094 L 267 107.746094 L 267 267.496094 L 108.039062 267.496094 Z M 108.039062 107.746094 " clip-rule="nonzero"/></clipPath></defs><rect x="-37.5" width="450" fill="#ffffff" y="-37.499999" height="449.999989" fill-opacity="1"/><rect x="-37.5" width="450" fill="#ffffff" y="-37.499999" height="449.999989" fill-opacity="1"/><rect x="-37.5" width="450" fill="#ffffff" y="-37.499999" height="449.999989" fill-opacity="1"/><g clip-path="url(#87973cd595)"><path fill="#000000" d="M 266.980469 181.480469 C 266.984375 181.421875 266.972656 181.367188 266.953125 181.3125 C 266.953125 181.308594 266.957031 181.308594 266.953125 181.304688 L 251.109375 139.644531 C 251.105469 139.636719 251.101562 139.636719 251.097656 139.628906 C 251.070312 139.570312 251.035156 139.511719 250.980469 139.464844 L 216.132812 111.714844 C 216.078125 111.671875 216.011719 111.640625 215.941406 111.625 C 215.933594 111.625 215.929688 111.625 215.925781 111.625 L 187.480469 107.75 C 187.425781 107.746094 187.367188 107.75 187.3125 107.765625 L 173.753906 111.621094 L 173.371094 111.621094 C 173.292969 111.621094 173.21875 111.644531 173.15625 111.679688 C 173.152344 111.679688 173.152344 111.679688 173.152344 111.679688 L 172.808594 111.890625 L 139.441406 121.382812 C 139.429688 121.386719 139.425781 121.398438 139.414062 121.398438 C 139.371094 121.417969 139.328125 121.441406 139.292969 121.472656 C 139.277344 121.484375 139.261719 121.496094 139.25 121.507812 C 139.242188 121.519531 139.230469 121.519531 139.226562 121.53125 L 110.003906 159.507812 C 109.996094 159.519531 109.996094 159.53125 109.988281 159.542969 C 109.976562 159.558594 109.964844 159.574219 109.957031 159.59375 C 109.953125 159.605469 109.949219 159.617188 109.945312 159.628906 C 109.9375 159.652344 109.933594 159.675781 109.929688 159.699219 C 109.929688 159.710938 109.921875 159.722656 109.921875 159.738281 L 108.082031 193.136719 C 108.078125 193.164062 108.082031 193.195312 108.085938 193.222656 L 110.777344 210.117188 C 110.78125 210.136719 110.792969 210.15625 110.800781 210.179688 C 110.804688 210.191406 110.804688 210.207031 110.808594 210.21875 C 110.8125 210.222656 110.816406 210.226562 110.816406 210.230469 C 110.816406 210.234375 110.816406 210.238281 110.820312 210.242188 L 124.425781 236.183594 C 124.449219 236.230469 124.480469 236.269531 124.515625 236.304688 L 140.472656 250.425781 C 140.5 250.457031 140.527344 250.480469 140.558594 250.5 L 159.007812 262.953125 C 159.058594 262.984375 159.117188 263.007812 159.179688 263.015625 L 188.125 267.523438 L 188.128906 267.523438 C 188.132812 267.523438 188.132812 267.523438 188.132812 267.523438 C 188.15625 267.527344 188.175781 267.53125 188.199219 267.53125 C 188.226562 267.53125 188.257812 267.527344 188.285156 267.519531 C 188.285156 267.519531 188.289062 267.519531 188.289062 267.519531 C 188.289062 267.519531 188.289062 267.519531 188.292969 267.519531 C 188.292969 267.519531 188.296875 267.519531 188.296875 267.519531 C 188.300781 267.519531 188.300781 267.515625 188.300781 267.515625 L 188.304688 267.515625 C 188.304688 267.515625 188.304688 267.515625 188.308594 267.515625 C 188.308594 267.511719 188.3125 267.511719 188.3125 267.511719 L 235.613281 253.671875 C 235.632812 253.667969 235.640625 253.652344 235.65625 253.644531 C 235.703125 253.625 235.738281 253.597656 235.773438 253.5625 C 235.789062 253.546875 235.8125 253.542969 235.828125 253.523438 L 264.605469 215.53125 C 264.648438 215.46875 264.671875 215.398438 264.679688 215.328125 C 264.679688 215.320312 264.6875 215.3125 264.6875 215.304688 Z M 263.878906 214.945312 L 251.433594 218.097656 L 265.984375 183.886719 Z M 213.378906 210.101562 L 167.515625 193.945312 L 202.105469 169.007812 Z M 202.105469 167.660156 L 167.617188 145.074219 L 212.460938 132.230469 Z M 201.613281 168.335938 L 167.042969 193.257812 L 167.042969 145.695312 Z M 166.210938 193.402344 L 126.976562 174.125 L 166.210938 145.742188 Z M 174.707031 239.625 L 137.308594 218.644531 L 166.347656 194.84375 Z M 167.167969 194.707031 L 213.125 210.898438 L 175.566406 239.679688 Z M 213.628906 211.5625 L 216.050781 245.980469 L 176.316406 240.15625 Z M 214.164062 209.8125 L 202.914062 168.792969 L 241.175781 172.621094 Z M 241.707031 173.304688 L 250.195312 218.167969 L 214.703125 210.488281 Z M 250.875 217.28125 L 242.484375 172.929688 L 266.011719 181.691406 Z M 241.765625 171.320312 L 214.035156 132.257812 L 250.203125 140.109375 Z M 241.066406 171.773438 L 202.890625 167.953125 L 213.230469 132.5625 Z M 167.171875 144.335938 L 173.667969 112.652344 L 211.921875 131.515625 Z M 166.3125 144.378906 L 136.96875 134.554688 L 172.769531 112.890625 Z M 165.726562 145.0625 L 126.851562 173.1875 L 136.28125 135.203125 Z M 125.933594 173.414062 L 110.941406 159.75 L 135.226562 135.992188 Z M 135.613281 134.445312 L 114.277344 155.320312 L 138.582031 123.734375 Z M 125.671875 174.304688 L 111.570312 208.050781 L 110.769531 160.71875 Z M 126.058594 175.542969 L 135.992188 218.070312 L 111.746094 209.796875 Z M 126.777344 174.953125 L 165.859375 194.160156 L 136.824219 217.960938 Z M 174.199219 240.296875 L 141.136719 249.621094 L 137.09375 219.480469 Z M 175.058594 240.921875 L 187.378906 266.375 L 142.15625 250.199219 Z M 188.355469 266.480469 L 175.996094 240.953125 L 215.433594 246.734375 Z M 216.863281 245.640625 L 214.445312 211.285156 L 249.785156 218.929688 Z M 249.644531 220.117188 L 235.273438 252.75 L 217.339844 246.328125 Z M 251.019531 219.0625 L 263.226562 215.972656 L 237.3125 250.1875 Z M 242.441406 172.019531 L 250.789062 141.140625 L 265.847656 180.742188 Z M 216.179688 112.816406 L 249.0625 139.007812 L 213.539062 131.292969 Z M 187.457031 108.589844 L 209.714844 111.621094 L 176.800781 111.621094 Z M 215.390625 112.457031 L 212.742188 130.992188 L 175.15625 112.457031 Z M 136.664062 133.765625 L 139.894531 122.121094 L 170.105469 113.527344 Z M 108.914062 193.136719 L 110.113281 171.332031 L 110.671875 204.164062 Z M 125.125 235.730469 L 114.085938 214.675781 L 138.105469 247.222656 Z M 112.316406 210.875 L 136.191406 219.019531 L 140.15625 248.597656 Z M 143.757812 251.65625 L 183.914062 266.023438 L 159.394531 262.207031 Z M 216.570312 246.9375 L 234.148438 253.234375 L 190.375 266.042969 Z M 216.570312 246.9375 " fill-opacity="1" fill-rule="nonzero"/></g></svg>