<svg xmlns="http://www.w3.org/2000/svg" xmlns:xlink="http://www.w3.org/1999/xlink" width="300" zoomAndPan="magnify" viewBox="0 0 375 374.999991" height="300" preserveAspectRatio="xMidYMid meet" version="1.0"><defs><g/><clipPath id="874ef8d4f0"><path d="M 24.789062 126.1875 L 137.289062 126.1875 L 137.289062 239.4375 L 24.789062 239.4375 Z M 24.789062 126.1875 " clip-rule="nonzero"/></clipPath></defs><g clip-path="url(#874ef8d4f0)"><path fill="#000000" d="M 137.246094 178.457031 C 137.25 178.417969 137.242188 178.375 137.226562 178.339844 C 137.226562 178.335938 137.230469 178.335938 137.226562 178.332031 L 126.015625 148.800781 C 126.015625 148.792969 126.011719 148.792969 126.007812 148.789062 C 125.992188 148.746094 125.964844 148.703125 125.925781 148.671875 L 101.269531 129 C 101.234375 128.96875 101.183594 128.945312 101.132812 128.9375 C 101.128906 128.9375 101.125 128.9375 101.121094 128.9375 L 81 126.191406 C 80.960938 126.183594 80.917969 126.1875 80.878906 126.199219 L 71.289062 128.933594 L 71.015625 128.933594 C 70.960938 128.933594 70.90625 128.949219 70.863281 128.976562 L 70.617188 129.125 L 47.011719 135.855469 C 47.003906 135.855469 46.996094 135.863281 46.992188 135.867188 C 46.960938 135.878906 46.929688 135.894531 46.902344 135.917969 C 46.894531 135.925781 46.882812 135.933594 46.875 135.941406 C 46.867188 135.949219 46.863281 135.949219 46.855469 135.957031 L 26.183594 162.878906 C 26.175781 162.886719 26.175781 162.898438 26.171875 162.90625 C 26.164062 162.917969 26.152344 162.929688 26.148438 162.941406 C 26.144531 162.949219 26.144531 162.957031 26.140625 162.964844 C 26.136719 162.984375 26.132812 163 26.128906 163.015625 C 26.128906 163.023438 26.125 163.035156 26.125 163.042969 L 24.820312 186.71875 C 24.820312 186.742188 24.820312 186.761719 24.824219 186.78125 L 26.730469 198.757812 C 26.734375 198.773438 26.742188 198.785156 26.746094 198.800781 C 26.75 198.8125 26.75 198.824219 26.753906 198.832031 C 26.753906 198.835938 26.757812 198.835938 26.757812 198.839844 C 26.757812 198.84375 26.757812 198.84375 26.761719 198.847656 L 36.386719 217.238281 C 36.402344 217.269531 36.425781 217.300781 36.449219 217.324219 L 47.738281 227.335938 C 47.757812 227.355469 47.777344 227.375 47.800781 227.386719 L 60.855469 236.214844 C 60.890625 236.238281 60.929688 236.253906 60.972656 236.261719 L 81.453125 239.457031 L 81.457031 239.457031 C 81.460938 239.457031 81.460938 239.457031 81.460938 239.457031 C 81.476562 239.457031 81.492188 239.460938 81.507812 239.460938 C 81.527344 239.460938 81.546875 239.457031 81.566406 239.453125 C 81.566406 239.453125 81.566406 239.453125 81.570312 239.453125 C 81.574219 239.453125 81.574219 239.453125 81.578125 239.449219 C 81.578125 239.453125 81.578125 239.449219 81.578125 239.449219 L 81.582031 239.449219 C 81.582031 239.449219 81.582031 239.449219 81.585938 239.449219 L 115.054688 229.636719 C 115.066406 229.632812 115.074219 229.621094 115.085938 229.613281 C 115.117188 229.601562 115.140625 229.582031 115.167969 229.558594 C 115.179688 229.546875 115.195312 229.542969 115.207031 229.53125 L 135.566406 202.59375 C 135.597656 202.550781 135.613281 202.503906 135.617188 202.453125 C 135.617188 202.445312 135.625 202.441406 135.625 202.4375 Z M 135.050781 202.183594 L 126.246094 204.414062 L 136.539062 180.164062 Z M 99.320312 198.746094 L 66.875 187.292969 L 91.347656 169.613281 Z M 91.347656 168.660156 L 66.945312 152.648438 L 98.671875 143.542969 Z M 91 169.136719 L 66.539062 186.808594 L 66.539062 153.089844 Z M 65.949219 186.910156 L 38.191406 173.242188 L 65.949219 153.121094 Z M 71.960938 219.675781 L 45.5 204.800781 L 66.046875 187.929688 Z M 66.628906 187.832031 L 99.144531 199.3125 L 72.570312 219.71875 Z M 99.5 199.78125 L 101.214844 224.183594 L 73.101562 220.054688 Z M 99.878906 198.542969 L 91.917969 169.464844 L 118.988281 172.175781 Z M 119.367188 172.664062 L 125.371094 204.464844 L 100.257812 199.019531 Z M 125.851562 203.835938 L 119.914062 172.394531 L 136.558594 178.605469 Z M 119.40625 171.253906 L 99.785156 143.5625 L 125.375 149.128906 Z M 118.914062 171.574219 L 91.902344 168.867188 L 99.21875 143.777344 Z M 66.628906 152.125 L 71.226562 129.664062 L 98.292969 143.039062 Z M 66.023438 152.15625 L 45.261719 145.191406 L 70.589844 129.832031 Z M 65.605469 152.640625 L 38.101562 172.578125 L 44.773438 145.652344 Z M 37.453125 172.738281 L 26.847656 163.050781 L 44.027344 146.210938 Z M 44.300781 145.113281 L 29.207031 159.910156 L 46.402344 137.519531 Z M 37.269531 173.371094 L 27.292969 197.292969 L 26.722656 163.738281 Z M 37.542969 174.246094 L 44.570312 204.398438 L 27.414062 198.53125 Z M 38.050781 173.832031 L 65.703125 187.445312 L 45.15625 204.320312 Z M 71.601562 220.152344 L 48.207031 226.761719 L 45.347656 205.394531 Z M 72.207031 220.597656 L 80.925781 238.640625 L 48.929688 227.171875 Z M 81.617188 238.714844 L 72.875 220.617188 L 100.773438 224.71875 Z M 101.789062 223.941406 L 100.078125 199.585938 L 125.078125 205.007812 Z M 124.980469 205.847656 L 114.8125 228.980469 L 102.125 224.429688 Z M 125.953125 205.101562 L 134.589844 202.910156 L 116.253906 227.164062 Z M 119.882812 171.75 L 125.789062 149.859375 L 136.445312 177.933594 Z M 101.304688 129.78125 L 124.570312 148.347656 L 99.4375 142.878906 Z M 80.980469 126.785156 L 96.730469 128.933594 L 73.445312 128.933594 Z M 100.746094 129.523438 L 98.871094 142.664062 L 72.28125 129.523438 Z M 45.046875 144.632812 L 47.332031 136.378906 L 68.703125 130.285156 Z M 25.410156 186.722656 L 26.261719 171.261719 L 26.65625 194.539062 Z M 36.882812 216.914062 L 29.070312 201.992188 L 46.066406 225.0625 Z M 27.820312 199.296875 L 44.710938 205.070312 L 47.515625 226.039062 Z M 50.0625 228.207031 L 78.476562 238.390625 L 61.128906 235.683594 Z M 101.582031 224.859375 L 114.019531 229.324219 L 83.046875 238.402344 Z M 101.582031 224.859375 " fill-opacity="1" fill-rule="nonzero"/></g><g fill="#231f20" fill-opacity="1"><g transform="translate(154.520172, 188.331708)"><g><path d="M 14.921875 -8.953125 C 15.898438 -8.609375 16.664062 -8.070312 17.21875 -7.34375 C 17.78125 -6.625 18.0625 -5.75 18.0625 -4.71875 C 18.0625 -3.207031 17.457031 -2.039062 16.25 -1.21875 C 15.039062 -0.40625 13.289062 0 11 0 L 1.71875 0 L 1.71875 -17.1875 L 10.5 -17.1875 C 12.695312 -17.1875 14.367188 -16.78125 15.515625 -15.96875 C 16.660156 -15.15625 17.234375 -14.0625 17.234375 -12.6875 C 17.234375 -11.875 17.03125 -11.144531 16.625 -10.5 C 16.226562 -9.851562 15.660156 -9.335938 14.921875 -8.953125 Z M 6.53125 -13.671875 L 6.53125 -10.359375 L 9.875 -10.359375 C 11.507812 -10.359375 12.328125 -10.914062 12.328125 -12.03125 C 12.328125 -13.125 11.507812 -13.671875 9.875 -13.671875 Z M 10.609375 -3.515625 C 12.304688 -3.515625 13.15625 -4.09375 13.15625 -5.25 C 13.15625 -6.414062 12.304688 -7 10.609375 -7 L 6.53125 -7 L 6.53125 -3.515625 Z M 10.609375 -3.515625 "/></g></g></g><g fill="#231f20" fill-opacity="1"><g transform="translate(178.305823, 188.331708)"><g><path d="M 10.390625 0.34375 C 8.566406 0.34375 6.929688 -0.0390625 5.484375 -0.8125 C 4.035156 -1.582031 2.894531 -2.644531 2.0625 -4 C 1.238281 -5.351562 0.828125 -6.882812 0.828125 -8.59375 C 0.828125 -10.289062 1.238281 -11.816406 2.0625 -13.171875 C 2.894531 -14.535156 4.035156 -15.601562 5.484375 -16.375 C 6.929688 -17.144531 8.566406 -17.53125 10.390625 -17.53125 C 12.203125 -17.53125 13.832031 -17.144531 15.28125 -16.375 C 16.726562 -15.601562 17.863281 -14.535156 18.6875 -13.171875 C 19.519531 -11.816406 19.9375 -10.289062 19.9375 -8.59375 C 19.9375 -6.882812 19.519531 -5.351562 18.6875 -4 C 17.863281 -2.644531 16.726562 -1.582031 15.28125 -0.8125 C 13.832031 -0.0390625 12.203125 0.34375 10.390625 0.34375 Z M 10.390625 -3.6875 C 11.253906 -3.6875 12.035156 -3.890625 12.734375 -4.296875 C 13.441406 -4.703125 14 -5.273438 14.40625 -6.015625 C 14.8125 -6.765625 15.015625 -7.625 15.015625 -8.59375 C 15.015625 -9.5625 14.8125 -10.414062 14.40625 -11.15625 C 14 -11.894531 13.441406 -12.46875 12.734375 -12.875 C 12.035156 -13.289062 11.253906 -13.5 10.390625 -13.5 C 9.515625 -13.5 8.722656 -13.289062 8.015625 -12.875 C 7.316406 -12.46875 6.765625 -11.894531 6.359375 -11.15625 C 5.953125 -10.414062 5.75 -9.5625 5.75 -8.59375 C 5.75 -7.625 5.953125 -6.765625 6.359375 -6.015625 C 6.765625 -5.273438 7.316406 -4.703125 8.015625 -4.296875 C 8.722656 -3.890625 9.515625 -3.6875 10.390625 -3.6875 Z M 10.390625 -3.6875 "/></g></g></g><g fill="#231f20" fill-opacity="1"><g transform="translate(203.981496, 188.331708)"><g><path d="M 9.234375 -4.5625 L 6.578125 -4.5625 L 6.578125 0 L 1.71875 0 L 1.71875 -17.1875 L 9.578125 -17.1875 C 11.128906 -17.1875 12.476562 -16.925781 13.625 -16.40625 C 14.769531 -15.894531 15.648438 -15.160156 16.265625 -14.203125 C 16.890625 -13.242188 17.203125 -12.117188 17.203125 -10.828125 C 17.203125 -9.578125 16.910156 -8.488281 16.328125 -7.5625 C 15.753906 -6.644531 14.925781 -5.925781 13.84375 -5.40625 L 17.546875 0 L 12.34375 0 Z M 12.296875 -10.828125 C 12.296875 -11.628906 12.039062 -12.25 11.53125 -12.6875 C 11.03125 -13.132812 10.28125 -13.359375 9.28125 -13.359375 L 6.578125 -13.359375 L 6.578125 -8.328125 L 9.28125 -8.328125 C 10.28125 -8.328125 11.03125 -8.539062 11.53125 -8.96875 C 12.039062 -9.40625 12.296875 -10.023438 12.296875 -10.828125 Z M 12.296875 -10.828125 "/></g></g></g><g fill="#231f20" fill-opacity="1"><g transform="translate(227.055324, 188.331708)"><g><path d="M 13.234375 -3.34375 L 5.96875 -3.34375 L 4.609375 0 L -0.34375 0 L 7.234375 -17.1875 L 12.03125 -17.1875 L 19.640625 0 L 14.578125 0 Z M 11.8125 -6.921875 L 9.59375 -12.421875 L 7.390625 -6.921875 Z M 11.8125 -6.921875 "/></g></g></g><g fill="#231f20" fill-opacity="1"><g transform="translate(251.251442, 188.331708)"><g><path d="M 5.375 -13.328125 L 0.09375 -13.328125 L 0.09375 -17.1875 L 15.484375 -17.1875 L 15.484375 -13.328125 L 10.234375 -13.328125 L 10.234375 0 L 5.375 0 Z M 5.375 -13.328125 "/></g></g></g><g fill="#231f20" fill-opacity="1"><g transform="translate(271.747974, 188.331708)"><g><path d="M 15.515625 -3.75 L 15.515625 0 L 1.71875 0 L 1.71875 -17.1875 L 15.1875 -17.1875 L 15.1875 -13.421875 L 6.53125 -13.421875 L 6.53125 -10.53125 L 14.15625 -10.53125 L 14.15625 -6.890625 L 6.53125 -6.890625 L 6.53125 -3.75 Z M 15.515625 -3.75 "/></g></g></g><g fill="#231f20" fill-opacity="1"><g transform="translate(293.152699, 188.331708)"><g><path d="M 10.28125 0.34375 C 8.476562 0.34375 6.863281 -0.0351562 5.4375 -0.796875 C 4.007812 -1.554688 2.882812 -2.613281 2.0625 -3.96875 C 1.238281 -5.332031 0.828125 -6.875 0.828125 -8.59375 C 0.828125 -10.3125 1.238281 -11.847656 2.0625 -13.203125 C 2.882812 -14.566406 4.007812 -15.628906 5.4375 -16.390625 C 6.863281 -17.148438 8.476562 -17.53125 10.28125 -17.53125 C 11.851562 -17.53125 13.269531 -17.25 14.53125 -16.6875 C 15.789062 -16.132812 16.835938 -15.332031 17.671875 -14.28125 L 14.578125 -11.484375 C 13.460938 -12.828125 12.113281 -13.5 10.53125 -13.5 C 9.59375 -13.5 8.757812 -13.289062 8.03125 -12.875 C 7.3125 -12.46875 6.75 -11.894531 6.34375 -11.15625 C 5.945312 -10.414062 5.75 -9.5625 5.75 -8.59375 C 5.75 -7.625 5.945312 -6.765625 6.34375 -6.015625 C 6.75 -5.273438 7.3125 -4.703125 8.03125 -4.296875 C 8.757812 -3.890625 9.59375 -3.6875 10.53125 -3.6875 C 12.113281 -3.6875 13.460938 -4.351562 14.578125 -5.6875 L 17.671875 -2.890625 C 16.835938 -1.847656 15.789062 -1.046875 14.53125 -0.484375 C 13.269531 0.0664062 11.851562 0.34375 10.28125 0.34375 Z M 10.28125 0.34375 "/></g></g></g><g fill="#231f20" fill-opacity="1"><g transform="translate(316.177437, 188.331708)"><g><path d="M 18.0625 -17.1875 L 18.0625 0 L 13.203125 0 L 13.203125 -6.703125 L 6.578125 -6.703125 L 6.578125 0 L 1.71875 0 L 1.71875 -17.1875 L 6.578125 -17.1875 L 6.578125 -10.734375 L 13.203125 -10.734375 L 13.203125 -17.1875 Z M 18.0625 -17.1875 "/></g></g></g><g fill="#008037" fill-opacity="1"><g transform="translate(174.89393, 206.593786)"><g><path d="M 3.46875 0.109375 C 2.863281 0.109375 2.28125 0.0234375 1.71875 -0.140625 C 1.15625 -0.316406 0.710938 -0.546875 0.390625 -0.828125 L 0.890625 -1.953125 C 1.210938 -1.703125 1.601562 -1.492188 2.0625 -1.328125 C 2.53125 -1.171875 3 -1.09375 3.46875 -1.09375 C 4.050781 -1.09375 4.484375 -1.1875 4.765625 -1.375 C 5.054688 -1.5625 5.203125 -1.804688 5.203125 -2.109375 C 5.203125 -2.328125 5.117188 -2.507812 4.953125 -2.65625 C 4.796875 -2.800781 4.59375 -2.914062 4.34375 -3 C 4.101562 -3.082031 3.769531 -3.175781 3.34375 -3.28125 C 2.75 -3.414062 2.265625 -3.554688 1.890625 -3.703125 C 1.523438 -3.847656 1.210938 -4.066406 0.953125 -4.359375 C 0.691406 -4.660156 0.5625 -5.070312 0.5625 -5.59375 C 0.5625 -6.019531 0.675781 -6.410156 0.90625 -6.765625 C 1.144531 -7.117188 1.5 -7.398438 1.96875 -7.609375 C 2.4375 -7.816406 3.015625 -7.921875 3.703125 -7.921875 C 4.179688 -7.921875 4.648438 -7.859375 5.109375 -7.734375 C 5.566406 -7.617188 5.960938 -7.453125 6.296875 -7.234375 L 5.84375 -6.109375 C 5.5 -6.304688 5.140625 -6.457031 4.765625 -6.5625 C 4.398438 -6.664062 4.039062 -6.71875 3.6875 -6.71875 C 3.113281 -6.71875 2.6875 -6.617188 2.40625 -6.421875 C 2.132812 -6.234375 2 -5.976562 2 -5.65625 C 2 -5.4375 2.078125 -5.253906 2.234375 -5.109375 C 2.398438 -4.960938 2.601562 -4.847656 2.84375 -4.765625 C 3.09375 -4.691406 3.425781 -4.601562 3.84375 -4.5 C 4.425781 -4.363281 4.898438 -4.222656 5.265625 -4.078125 C 5.640625 -3.929688 5.957031 -3.707031 6.21875 -3.40625 C 6.488281 -3.113281 6.625 -2.710938 6.625 -2.203125 C 6.625 -1.773438 6.503906 -1.382812 6.265625 -1.03125 C 6.035156 -0.6875 5.679688 -0.410156 5.203125 -0.203125 C 4.734375 0.00390625 4.15625 0.109375 3.46875 0.109375 Z M 3.46875 0.109375 "/></g></g></g><g fill="#008037" fill-opacity="1"><g transform="translate(184.135694, 206.593786)"><g><path d="M 4.703125 0.109375 C 3.898438 0.109375 3.175781 -0.0625 2.53125 -0.40625 C 1.894531 -0.75 1.394531 -1.226562 1.03125 -1.84375 C 0.664062 -2.457031 0.484375 -3.144531 0.484375 -3.90625 C 0.484375 -4.664062 0.664062 -5.351562 1.03125 -5.96875 C 1.394531 -6.582031 1.894531 -7.0625 2.53125 -7.40625 C 3.175781 -7.75 3.898438 -7.921875 4.703125 -7.921875 C 5.492188 -7.921875 6.207031 -7.75 6.84375 -7.40625 C 7.488281 -7.0625 7.992188 -6.582031 8.359375 -5.96875 C 8.722656 -5.351562 8.90625 -4.664062 8.90625 -3.90625 C 8.90625 -3.132812 8.722656 -2.441406 8.359375 -1.828125 C 7.992188 -1.222656 7.488281 -0.75 6.84375 -0.40625 C 6.207031 -0.0625 5.492188 0.109375 4.703125 0.109375 Z M 4.703125 -1.15625 C 5.222656 -1.15625 5.691406 -1.269531 6.109375 -1.5 C 6.523438 -1.738281 6.847656 -2.066406 7.078125 -2.484375 C 7.316406 -2.910156 7.4375 -3.382812 7.4375 -3.90625 C 7.4375 -4.425781 7.316406 -4.894531 7.078125 -5.3125 C 6.847656 -5.738281 6.523438 -6.066406 6.109375 -6.296875 C 5.691406 -6.535156 5.222656 -6.65625 4.703125 -6.65625 C 4.179688 -6.65625 3.710938 -6.535156 3.296875 -6.296875 C 2.878906 -6.066406 2.550781 -5.738281 2.3125 -5.3125 C 2.070312 -4.894531 1.953125 -4.425781 1.953125 -3.90625 C 1.953125 -3.382812 2.070312 -2.910156 2.3125 -2.484375 C 2.550781 -2.066406 2.878906 -1.738281 3.296875 -1.5 C 3.710938 -1.269531 4.179688 -1.15625 4.703125 -1.15625 Z M 4.703125 -1.15625 "/></g></g></g><g fill="#008037" fill-opacity="1"><g transform="translate(195.751249, 206.593786)"><g><path d="M 2.5 -6.59375 L 2.5 -4.21875 L 6.265625 -4.21875 L 6.265625 -2.984375 L 2.5 -2.984375 L 2.5 0 L 1.046875 0 L 1.046875 -7.8125 L 6.75 -7.8125 L 6.75 -6.59375 Z M 2.5 -6.59375 "/></g></g></g><g fill="#008037" fill-opacity="1"><g transform="translate(205.082174, 206.593786)"><g><path d="M 2.640625 -6.578125 L 0.046875 -6.578125 L 0.046875 -7.8125 L 6.671875 -7.8125 L 6.671875 -6.578125 L 4.078125 -6.578125 L 4.078125 0 L 2.640625 0 Z M 2.640625 -6.578125 "/></g></g></g><g fill="#008037" fill-opacity="1"><g transform="translate(214.023039, 206.593786)"><g><path d="M 12.46875 -7.8125 L 9.875 0 L 8.328125 0 L 6.40625 -5.78125 L 4.4375 0 L 2.890625 0 L 0.296875 -7.8125 L 1.8125 -7.8125 L 3.75 -1.875 L 5.765625 -7.8125 L 7.109375 -7.8125 L 9.078125 -1.84375 L 11.078125 -7.8125 Z M 12.46875 -7.8125 "/></g></g></g><g fill="#008037" fill-opacity="1"><g transform="translate(229.004258, 206.593786)"><g><path d="M 6.109375 -1.8125 L 2.203125 -1.8125 L 1.4375 0 L -0.0625 0 L 3.453125 -7.8125 L 4.890625 -7.8125 L 8.40625 0 L 6.890625 0 Z M 5.640625 -2.9375 L 4.15625 -6.359375 L 2.703125 -2.9375 Z M 5.640625 -2.9375 "/></g></g></g><g fill="#008037" fill-opacity="1"><g transform="translate(239.583371, 206.593786)"><g><path d="M 6.15625 0 L 4.5625 -2.28125 C 4.5 -2.28125 4.398438 -2.28125 4.265625 -2.28125 L 2.5 -2.28125 L 2.5 0 L 1.046875 0 L 1.046875 -7.8125 L 4.265625 -7.8125 C 4.941406 -7.8125 5.53125 -7.695312 6.03125 -7.46875 C 6.53125 -7.25 6.914062 -6.929688 7.1875 -6.515625 C 7.457031 -6.097656 7.59375 -5.601562 7.59375 -5.03125 C 7.59375 -4.445312 7.445312 -3.941406 7.15625 -3.515625 C 6.875 -3.085938 6.460938 -2.769531 5.921875 -2.5625 L 7.71875 0 Z M 6.125 -5.03125 C 6.125 -5.53125 5.957031 -5.910156 5.625 -6.171875 C 5.300781 -6.441406 4.820312 -6.578125 4.1875 -6.578125 L 2.5 -6.578125 L 2.5 -3.46875 L 4.1875 -3.46875 C 4.820312 -3.46875 5.300781 -3.601562 5.625 -3.875 C 5.957031 -4.144531 6.125 -4.53125 6.125 -5.03125 Z M 6.125 -5.03125 "/></g></g></g><g fill="#008037" fill-opacity="1"><g transform="translate(249.961879, 206.593786)"><g><path d="M 6.90625 -1.21875 L 6.90625 0 L 1.046875 0 L 1.046875 -7.8125 L 6.75 -7.8125 L 6.75 -6.59375 L 2.5 -6.59375 L 2.5 -4.5625 L 6.265625 -4.5625 L 6.265625 -3.375 L 2.5 -3.375 L 2.5 -1.21875 Z M 6.90625 -1.21875 "/></g></g></g><g fill="#008037" fill-opacity="1"><g transform="translate(259.660575, 206.593786)"><g/></g></g><g fill="#008037" fill-opacity="1"><g transform="translate(264.96831, 206.593786)"><g><path d="M 7.984375 -7.8125 L 7.984375 0 L 6.53125 0 L 6.53125 -3.34375 L 2.5 -3.34375 L 2.5 0 L 1.046875 0 L 1.046875 -7.8125 L 2.5 -7.8125 L 2.5 -4.578125 L 6.53125 -4.578125 L 6.53125 -7.8125 Z M 7.984375 -7.8125 "/></g></g></g><g fill="#008037" fill-opacity="1"><g transform="translate(276.227247, 206.593786)"><g><path d="M 4.703125 0.109375 C 3.898438 0.109375 3.175781 -0.0625 2.53125 -0.40625 C 1.894531 -0.75 1.394531 -1.226562 1.03125 -1.84375 C 0.664062 -2.457031 0.484375 -3.144531 0.484375 -3.90625 C 0.484375 -4.664062 0.664062 -5.351562 1.03125 -5.96875 C 1.394531 -6.582031 1.894531 -7.0625 2.53125 -7.40625 C 3.175781 -7.75 3.898438 -7.921875 4.703125 -7.921875 C 5.492188 -7.921875 6.207031 -7.75 6.84375 -7.40625 C 7.488281 -7.0625 7.992188 -6.582031 8.359375 -5.96875 C 8.722656 -5.351562 8.90625 -4.664062 8.90625 -3.90625 C 8.90625 -3.132812 8.722656 -2.441406 8.359375 -1.828125 C 7.992188 -1.222656 7.488281 -0.75 6.84375 -0.40625 C 6.207031 -0.0625 5.492188 0.109375 4.703125 0.109375 Z M 4.703125 -1.15625 C 5.222656 -1.15625 5.691406 -1.269531 6.109375 -1.5 C 6.523438 -1.738281 6.847656 -2.066406 7.078125 -2.484375 C 7.316406 -2.910156 7.4375 -3.382812 7.4375 -3.90625 C 7.4375 -4.425781 7.316406 -4.894531 7.078125 -5.3125 C 6.847656 -5.738281 6.523438 -6.066406 6.109375 -6.296875 C 5.691406 -6.535156 5.222656 -6.65625 4.703125 -6.65625 C 4.179688 -6.65625 3.710938 -6.535156 3.296875 -6.296875 C 2.878906 -6.066406 2.550781 -5.738281 2.3125 -5.3125 C 2.070312 -4.894531 1.953125 -4.425781 1.953125 -3.90625 C 1.953125 -3.382812 2.070312 -2.910156 2.3125 -2.484375 C 2.550781 -2.066406 2.878906 -1.738281 3.296875 -1.5 C 3.710938 -1.269531 4.179688 -1.15625 4.703125 -1.15625 Z M 4.703125 -1.15625 "/></g></g></g><g fill="#008037" fill-opacity="1"><g transform="translate(287.842805, 206.593786)"><g><path d="M 4.40625 0.109375 C 3.332031 0.109375 2.492188 -0.191406 1.890625 -0.796875 C 1.285156 -1.398438 0.984375 -2.269531 0.984375 -3.40625 L 0.984375 -7.8125 L 2.4375 -7.8125 L 2.4375 -3.453125 C 2.4375 -1.921875 3.097656 -1.15625 4.421875 -1.15625 C 5.734375 -1.15625 6.390625 -1.921875 6.390625 -3.453125 L 6.390625 -7.8125 L 7.828125 -7.8125 L 7.828125 -3.40625 C 7.828125 -2.269531 7.523438 -1.398438 6.921875 -0.796875 C 6.328125 -0.191406 5.488281 0.109375 4.40625 0.109375 Z M 4.40625 0.109375 "/></g></g></g><g fill="#008037" fill-opacity="1"><g transform="translate(298.867699, 206.593786)"><g><path d="M 3.46875 0.109375 C 2.863281 0.109375 2.28125 0.0234375 1.71875 -0.140625 C 1.15625 -0.316406 0.710938 -0.546875 0.390625 -0.828125 L 0.890625 -1.953125 C 1.210938 -1.703125 1.601562 -1.492188 2.0625 -1.328125 C 2.53125 -1.171875 3 -1.09375 3.46875 -1.09375 C 4.050781 -1.09375 4.484375 -1.1875 4.765625 -1.375 C 5.054688 -1.5625 5.203125 -1.804688 5.203125 -2.109375 C 5.203125 -2.328125 5.117188 -2.507812 4.953125 -2.65625 C 4.796875 -2.800781 4.59375 -2.914062 4.34375 -3 C 4.101562 -3.082031 3.769531 -3.175781 3.34375 -3.28125 C 2.75 -3.414062 2.265625 -3.554688 1.890625 -3.703125 C 1.523438 -3.847656 1.210938 -4.066406 0.953125 -4.359375 C 0.691406 -4.660156 0.5625 -5.070312 0.5625 -5.59375 C 0.5625 -6.019531 0.675781 -6.410156 0.90625 -6.765625 C 1.144531 -7.117188 1.5 -7.398438 1.96875 -7.609375 C 2.4375 -7.816406 3.015625 -7.921875 3.703125 -7.921875 C 4.179688 -7.921875 4.648438 -7.859375 5.109375 -7.734375 C 5.566406 -7.617188 5.960938 -7.453125 6.296875 -7.234375 L 5.84375 -6.109375 C 5.5 -6.304688 5.140625 -6.457031 4.765625 -6.5625 C 4.398438 -6.664062 4.039062 -6.71875 3.6875 -6.71875 C 3.113281 -6.71875 2.6875 -6.617188 2.40625 -6.421875 C 2.132812 -6.234375 2 -5.976562 2 -5.65625 C 2 -5.4375 2.078125 -5.253906 2.234375 -5.109375 C 2.398438 -4.960938 2.601562 -4.847656 2.84375 -4.765625 C 3.09375 -4.691406 3.425781 -4.601562 3.84375 -4.5 C 4.425781 -4.363281 4.898438 -4.222656 5.265625 -4.078125 C 5.640625 -3.929688 5.957031 -3.707031 6.21875 -3.40625 C 6.488281 -3.113281 6.625 -2.710938 6.625 -2.203125 C 6.625 -1.773438 6.503906 -1.382812 6.265625 -1.03125 C 6.035156 -0.6875 5.679688 -0.410156 5.203125 -0.203125 C 4.734375 0.00390625 4.15625 0.109375 3.46875 0.109375 Z M 3.46875 0.109375 "/></g></g></g><g fill="#008037" fill-opacity="1"><g transform="translate(308.109466, 206.593786)"><g><path d="M 6.90625 -1.21875 L 6.90625 0 L 1.046875 0 L 1.046875 -7.8125 L 6.75 -7.8125 L 6.75 -6.59375 L 2.5 -6.59375 L 2.5 -4.5625 L 6.265625 -4.5625 L 6.265625 -3.375 L 2.5 -3.375 L 2.5 -1.21875 Z M 6.90625 -1.21875 "/></g></g></g></svg>